<svg width="846" height="826" viewBox="0 0 846 826" fill="none" xmlns="http://www.w3.org/2000/svg">
<g id="Layer_4">
<g id="Group">
<g id="Group_2">
<path id="Vector" d="M640.589 825.4V594.512C685.632 549.154 713.666 486.785 713.666 417.803C713.666 279.522 601.845 167.385 463.879 167.385C325.913 167.385 214.092 279.522 214.092 417.803C214.092 421.582 214.092 425.362 214.407 429.142L179.758 489.62L133.769 569.313H191.727V668.22C191.727 705.389 221.966 735.628 259.135 735.628H365.917V825.4" stroke="#0561FC" stroke-width="10.0172" stroke-linejoin="round"/>
</g>
<g id="Group_3">
<g id="Group_4">
<path id="side" d="M422.842 308.816L522.064 365.829L422.212 423.472L322.99 366.774L422.842 308.816Z" fill="#9AC7F7" stroke="#0561FC" stroke-width="10.0172" stroke-linecap="round" stroke-linejoin="round"/>
<g id="side_2">
<g id="Group_5">
<path id="Vector_2" d="M520.489 364.254L521.749 479.856L421.897 537.814L420.637 422.212L520.489 364.254Z" fill="#9AC7F7"/>
</g>
<g id="Group_6">
<path id="Vector_3" d="M522.064 365.829L523.008 481.431L423.156 539.074L422.211 423.472L522.064 365.829Z" stroke="#0561FC" stroke-width="10.0172" stroke-linecap="round" stroke-linejoin="round"/>
</g>
</g>
<g id="side_3">
<g id="Group_7">
<path id="Vector_4" d="M422.211 423.472L423.156 539.074L323.934 482.376L322.989 366.774L422.211 423.472Z" fill="white"/>
</g>
<g id="Group_8">
<path id="Vector_5" d="M422.211 423.472L423.156 539.074L323.934 482.376L322.989 366.774L422.211 423.472Z" stroke="#0561FC" stroke-width="10.0172" stroke-linecap="round" stroke-linejoin="round"/>
</g>
</g>
</g>
<path id="Vector_6" d="M608.372 424.102C608.372 526.789 525.529 609.947 423.157 609.947C320.786 609.947 237.943 526.789 237.943 424.102C237.943 321.416 320.786 238.258 423.157 238.258C525.214 238.258 608.372 321.416 608.372 424.102Z" stroke="#0561FC" stroke-width="10.0172" stroke-dasharray="10.28 10.28"/>
<g id="Group_9">
<g id="Group_10">
<path id="Vector_7" d="M493.715 73.518L428.197 8L362.679 73.518" stroke="#0561FC" stroke-width="10.0172"/>
<path id="Vector_8" d="M428.197 20.9145V132.106" stroke="#0561FC" stroke-width="10.0172" stroke-linejoin="bevel"/>
</g>
<g id="Group_11">
<path id="Vector_9" d="M225.974 126.122H133.052V219.044" stroke="#0561FC" stroke-width="10.0172"/>
<path id="Vector_10" d="M142.501 135.256L220.619 214.004" stroke="#0561FC" stroke-width="10.0172" stroke-linejoin="bevel"/>
</g>
<g id="Group_12">
<path id="Vector_11" d="M73.5181 353.229L8 418.748L73.5181 484.581" stroke="#0561FC" stroke-width="10.0172"/>
<path id="Vector_12" d="M20.9147 418.747H131.791" stroke="#0561FC" stroke-width="10.0172" stroke-linejoin="bevel"/>
</g>
<g id="Group_13">
<path id="Vector_13" d="M772.482 494.975L838 429.142L772.482 363.624" stroke="#0561FC" stroke-width="10.0172"/>
<path id="Vector_14" d="M825.085 429.142H714.209" stroke="#0561FC" stroke-width="10.0172" stroke-linejoin="bevel"/>
</g>
<g id="Group_14">
<path id="Vector_15" d="M720.194 226.288V133.681L627.586 133.366" stroke="#0561FC" stroke-width="10.0172"/>
<path id="Vector_16" d="M711.059 142.816L632.626 221.249" stroke="#0561FC" stroke-width="10.0172" stroke-linejoin="bevel"/>
</g>
</g>
</g>
</g>
</g>
</svg>
