<svg width="1517" height="352" viewBox="0 0 1517 352" fill="none" xmlns="http://www.w3.org/2000/svg">
<path d="M88.2188 351.125C29.8854 351.125 0.71875 320.852 0.71875 260.305V142.727C0.71875 115.122 8.46615 93.1172 23.9609 76.7109C39.4557 60.1745 60.875 51.9062 88.2188 51.9062C115.693 51.9062 137.177 60.1745 152.672 76.7109C168.167 93.1172 175.914 115.122 175.914 142.727V260.305C175.914 320.852 146.682 351.125 88.2188 351.125ZM88.2188 297.219C94.0781 297.219 98.2448 295.135 100.719 290.969C103.323 286.672 104.625 281.268 104.625 274.758V131.594C104.625 114.536 99.1562 106.008 88.2188 106.008C77.2812 106.008 71.8125 114.536 71.8125 131.594V274.758C71.8125 281.268 73.0495 286.672 75.5234 290.969C78.1276 295.135 82.3594 297.219 88.2188 297.219ZM258.336 351.125C242.711 351.125 230.732 347.87 222.398 341.359C214.195 334.849 208.596 325.799 205.602 314.211C202.607 302.492 201.109 288.82 201.109 273.195V55.0312H271.422V264.992C271.422 276.711 272.333 284.914 274.156 289.602C275.979 294.159 280.276 296.438 287.047 296.438C294.339 296.438 298.896 293.182 300.719 286.672C302.672 280.161 303.648 271.763 303.648 261.477V55.0312H373.375V348H303.453V316.75C299.026 327.948 293.688 336.477 287.438 342.336C281.318 348.195 271.617 351.125 258.336 351.125ZM461.656 351.125C442.776 351.125 430.016 347.154 423.375 339.211C416.865 331.138 413.609 318.833 413.609 302.297V119.68H393.883V66.3594H413.609V4.25H481.578V66.3594H501.305V119.68H481.578V285.891C481.578 290.708 482.359 294.094 483.922 296.047C485.484 298 488.479 298.977 492.906 298.977C496.031 298.977 498.831 298.716 501.305 298.195V345.852C499.742 346.372 494.859 347.349 486.656 348.781C478.453 350.344 470.12 351.125 461.656 351.125ZM702.672 351.125C644.339 351.125 615.172 320.852 615.172 260.305V142.727C615.172 115.122 622.919 93.1172 638.414 76.7109C653.909 60.1745 675.328 51.9062 702.672 51.9062C730.146 51.9062 751.63 60.1745 767.125 76.7109C782.62 93.1172 790.367 115.122 790.367 142.727V260.305C790.367 320.852 761.135 351.125 702.672 351.125ZM702.672 297.219C708.531 297.219 712.698 295.135 715.172 290.969C717.776 286.672 719.078 281.268 719.078 274.758V131.594C719.078 114.536 713.609 106.008 702.672 106.008C691.734 106.008 686.266 114.536 686.266 131.594V274.758C686.266 281.268 687.503 286.672 689.977 290.969C692.581 295.135 696.812 297.219 702.672 297.219ZM822.789 348V121.242H810.094V67.9219H822.789V48C822.789 16.4896 838.544 0.734375 870.055 0.734375C884.898 0.734375 896.878 2.6224 905.992 6.39844V49.5625C902.737 48.9115 900.589 48.5859 899.547 48.5859C895.51 48.5859 893.036 50.0833 892.125 53.0781C891.214 55.9427 890.758 59.6536 890.758 64.2109V67.9219H905.992V122.023H892.125V348H822.789Z" fill="white"/>
<path d="M1082.36 351.125C1063.48 351.125 1050.72 347.154 1044.08 339.211C1037.57 331.138 1034.31 318.833 1034.31 302.297V119.68H1014.59V66.3594H1034.31V4.25H1102.28V66.3594H1122.01V119.68H1102.28V285.891C1102.28 290.708 1103.06 294.094 1104.62 296.047C1106.19 298 1109.18 298.977 1113.61 298.977C1116.73 298.977 1119.53 298.716 1122.01 298.195V345.852C1120.45 346.372 1115.56 347.349 1107.36 348.781C1099.16 350.344 1090.82 351.125 1082.36 351.125ZM1144.47 348V4.25H1216.34V84.1328C1220.12 73.1953 1225.91 65.1224 1233.73 59.9141C1241.54 54.5755 1250.65 51.9062 1261.07 51.9062C1281.38 51.9062 1296.16 58.2865 1305.41 71.0469C1314.65 83.8073 1319.27 100.93 1319.27 122.414V348H1248.57V126.906C1248.57 120.526 1247.2 115.318 1244.47 111.281C1241.86 107.245 1237.7 105.227 1231.97 105.227C1227.15 105.227 1223.31 107.31 1220.45 111.477C1217.71 115.643 1216.34 120.591 1216.34 126.32V348H1144.47ZM1428.84 351.125C1408.01 351.125 1391.41 347.219 1379.04 339.406C1366.67 331.594 1357.82 320.331 1352.48 305.617C1347.14 290.904 1344.47 273.195 1344.47 252.492V134.719C1344.47 107.505 1352.28 86.9323 1367.91 73C1383.53 58.9375 1405.02 51.9062 1432.36 51.9062C1488.61 51.9062 1516.73 79.5104 1516.73 134.719V156.008C1516.73 181.789 1516.47 199.107 1515.95 207.961H1414.39V264.602C1414.39 269.81 1414.72 274.953 1415.37 280.031C1416.02 284.979 1417.45 289.081 1419.66 292.336C1422.01 295.591 1425.72 297.219 1430.8 297.219C1438.09 297.219 1442.65 294.094 1444.47 287.844C1446.29 281.464 1447.2 273.195 1447.2 263.039V234.914H1516.73V251.516C1516.73 273.391 1514 291.75 1508.53 306.594C1503.19 321.307 1494.08 332.44 1481.19 339.992C1468.43 347.414 1450.98 351.125 1428.84 351.125ZM1414 173.195H1447.2V133.742C1447.2 123.195 1445.9 115.643 1443.3 111.086C1440.69 106.398 1436.79 104.055 1431.58 104.055C1425.98 104.055 1421.62 106.268 1418.49 110.695C1415.5 115.122 1414 122.805 1414 133.742V173.195Z" fill="#3B82F6"/>
</svg>
