<svg width="916" height="362" viewBox="0 0 916 362" fill="none" xmlns="http://www.w3.org/2000/svg">
<path d="M825.289 353V355.5H827.789H897.125H899.625V353V129.523H910.992H913.492V127.023V72.9219V70.4219H910.992H898.258V69.2109C898.258 64.7925 898.703 61.3638 899.507 58.8361L899.512 58.8211L899.517 58.806C899.809 57.8452 900.294 57.2499 900.959 56.8477C901.68 56.4111 902.812 56.0859 904.547 56.0859C905.296 56.0859 907.194 56.3524 910.502 57.014L913.492 57.612V54.5625V11.3984V9.7281L911.949 9.0888C902.418 5.14023 890.077 3.23438 875.055 3.23438C858.914 3.23438 846.35 7.27121 837.838 15.783C829.326 24.2948 825.289 36.8594 825.289 53V70.4219H815.094H812.594V72.9219V126.242V128.742H815.094H825.289V353Z" stroke="white" stroke-width="5"/>
<path d="M718.034 294.673L718.028 294.683L718.022 294.692C716.099 297.931 712.865 299.719 707.672 299.719C702.501 299.719 699.176 297.943 697.12 294.681C694.937 290.87 693.766 285.942 693.766 279.758V136.594C693.766 128.252 695.117 122.425 697.472 118.754C699.704 115.272 702.974 113.508 707.672 113.508C712.37 113.508 715.639 115.272 717.872 118.754C720.226 122.425 721.578 128.252 721.578 136.594V279.758C721.578 285.944 720.341 290.866 718.034 294.673ZM617.672 265.305C617.672 295.941 625.05 319.381 640.247 335.154C655.46 350.945 678.096 358.625 707.672 358.625C737.312 358.625 759.995 350.946 775.242 335.156C790.472 319.383 797.867 295.942 797.867 265.305V147.727C797.867 119.636 789.97 96.967 773.946 79.9983C757.881 62.8547 735.677 54.4062 707.672 54.4062C679.793 54.4062 657.656 62.8571 641.593 79.998C625.569 96.9668 617.672 119.636 617.672 147.727V265.305Z" stroke="white" stroke-width="5"/>
<path d="M426.429 345.78L426.443 345.798L426.457 345.814C433.845 354.651 447.605 358.625 466.656 358.625C475.268 358.625 483.752 357.831 492.105 356.241C500.2 354.827 505.311 353.818 507.095 353.223L508.805 352.653V350.852V303.195V300.114L505.79 300.749C503.519 301.227 500.897 301.477 497.906 301.477C493.681 301.477 491.699 300.516 490.874 299.485C489.871 298.232 489.078 295.592 489.078 290.891V127.18H506.305H508.805V124.68V71.3594V68.8594H506.305H489.078V9.25V6.75H486.578H418.609H416.109V9.25V68.8594H398.883H396.383V71.3594V124.68V127.18H398.883H416.109V307.297C416.109 324.087 419.402 337.066 426.429 345.78Z" stroke="white" stroke-width="5"/>
<path d="M225.844 348.318L225.852 348.324L225.859 348.329C234.798 355.313 247.409 358.625 263.336 358.625C276.901 358.625 287.366 355.645 294.155 349.152C298.566 345.015 302.49 339.677 305.953 333.188V353V355.5H308.453H378.375H380.875V353V60.0312V57.5312H378.375H308.648H306.148V60.0312V266.477C306.148 276.631 305.181 284.763 303.324 290.954L303.318 290.976L303.311 290.998C302.521 293.822 301.205 295.73 299.48 296.962C297.738 298.207 295.328 298.938 292.047 298.938C288.918 298.938 286.592 298.408 284.917 297.52C283.3 296.662 282.176 295.413 281.482 293.684C279.847 289.471 278.922 281.694 278.922 269.992V60.0312V57.5312H276.422H206.109H203.609V60.0312V278.195C203.609 293.972 205.12 307.86 208.179 319.83L208.181 319.836C211.292 331.873 217.156 341.422 225.844 348.318Z" stroke="white" stroke-width="5"/>
<path d="M103.581 294.673L103.575 294.683L103.569 294.692C101.646 297.931 98.412 299.719 93.2188 299.719C88.0478 299.719 84.7224 297.943 82.667 294.681C80.4843 290.87 79.3125 285.942 79.3125 279.758V136.594C79.3125 128.252 80.6643 122.425 83.0186 118.754C85.2512 115.272 88.5207 113.508 93.2188 113.508C97.9168 113.508 101.186 115.272 103.419 118.754C105.773 122.425 107.125 128.252 107.125 136.594V279.758C107.125 285.944 105.888 290.866 103.581 294.673ZM3.21875 265.305C3.21875 295.941 10.5965 319.381 25.7934 335.154C41.007 350.945 63.6425 358.625 93.2188 358.625C122.859 358.625 145.542 350.946 160.789 335.156C176.019 319.383 183.414 295.942 183.414 265.305V147.727C183.414 119.636 175.517 96.967 159.493 79.9983C143.428 62.8547 121.224 54.4062 93.2188 54.4062C65.3399 54.4062 43.2031 62.8571 27.14 79.998C11.1159 96.9668 3.21875 119.636 3.21875 147.727V265.305Z" stroke="white" stroke-width="5"/>
</svg>
