<svg width="513" height="358" viewBox="0 0 513 358" fill="none" xmlns="http://www.w3.org/2000/svg">
<path d="M506.812 211.461H509.17L509.308 209.108C509.834 200.169 510.094 182.779 510.094 157.008V135.719C510.094 107.717 502.958 86.2596 488.251 71.8252C473.553 57.3992 451.717 50.4062 423.219 50.4062C395.45 50.4062 373.305 57.553 357.098 72.1379C340.795 86.677 332.828 108.022 332.828 135.719V253.492C332.828 274.398 335.522 292.411 340.986 307.47C346.499 322.666 355.691 334.39 368.563 342.52C381.468 350.67 398.588 354.625 419.703 354.625C442.076 354.625 460.017 350.881 473.304 343.153L473.311 343.149C486.729 335.288 496.212 323.682 501.739 308.45C507.339 293.247 510.094 274.577 510.094 252.516V235.914V233.414H507.594H438.062H435.562V235.914V264.039C435.562 274.068 434.66 282.079 432.926 288.15C432.146 290.821 430.849 292.634 429.129 293.813C427.381 295.012 424.957 295.719 421.656 295.719C417.161 295.719 414.323 294.316 412.571 291.902C410.639 289.049 409.317 285.353 408.706 280.709C408.069 275.74 407.75 270.704 407.75 265.602V211.461H506.812ZM431.971 113.3L431.978 113.313L431.986 113.326C434.248 117.285 435.562 124.273 435.562 134.742V171.695H407.359V134.742C407.359 123.896 408.871 116.884 411.409 113.116C414.046 109.393 417.628 107.555 422.438 107.555C424.655 107.555 426.476 108.049 427.987 108.956C429.502 109.865 430.844 111.271 431.971 113.3Z" stroke="#3B82F6" stroke-width="5"/>
<path d="M132.828 349V351.5H135.328H207.203H209.703V349V127.32C209.703 122.015 210.961 117.567 213.38 113.871C215.803 110.358 218.889 108.727 222.828 108.727C227.898 108.727 231.178 110.46 233.227 113.637L233.243 113.66L233.258 113.683C235.638 117.196 236.93 121.873 236.93 127.906V349V351.5H239.43H310.133H312.633V349V123.414C312.633 101.591 307.939 83.8976 298.29 70.5801C288.443 56.9881 272.788 50.4062 251.93 50.4062C241.068 50.4062 231.454 53.1963 223.187 58.8419C217.731 62.4819 213.247 67.398 209.703 73.5232V5.25V2.75H207.203H135.328H132.828V5.25V349Z" stroke="#3B82F6" stroke-width="5"/>
<path d="M32.9915 341.78L33.0053 341.798L33.0195 341.814C40.4077 350.651 54.1672 354.625 73.2188 354.625C81.8306 354.625 90.3142 353.831 98.6675 352.241C106.763 350.827 111.874 349.818 113.658 349.223L115.367 348.653V346.852V299.195V296.114L112.352 296.749C110.082 297.227 107.459 297.477 104.469 297.477C100.244 297.477 98.261 296.516 97.4365 295.485C96.4338 294.232 95.6406 291.592 95.6406 286.891V123.18H112.867H115.367V120.68V67.3594V64.8594H112.867H95.6406V5.25V2.75H93.1406H25.1719H22.6719V5.25V64.8594H5.44531H2.94531V67.3594V120.68V123.18H5.44531H22.6719V303.297C22.6719 320.087 25.9641 333.066 32.9915 341.78Z" stroke="#3B82F6" stroke-width="5"/>
</svg>
