<svg width="1857" height="187" viewBox="0 0 1857 187" fill="none" xmlns="http://www.w3.org/2000/svg">
<path d="M1812.98 186.562C1802.56 186.562 1794.26 184.609 1788.08 180.703C1781.89 176.797 1777.47 171.165 1774.8 163.809C1772.13 156.452 1770.79 147.598 1770.79 137.246V78.3594C1770.79 64.7526 1774.7 54.4661 1782.51 47.5C1790.32 40.4688 1801.07 36.9531 1814.74 36.9531C1842.86 36.9531 1856.93 50.7552 1856.93 78.3594V89.0039C1856.93 101.895 1856.8 110.553 1856.54 114.98H1805.75V143.301C1805.75 145.905 1805.92 148.477 1806.24 151.016C1806.57 153.49 1807.28 155.54 1808.39 157.168C1809.56 158.796 1811.42 159.609 1813.96 159.609C1817.6 159.609 1819.88 158.047 1820.79 154.922C1821.7 151.732 1822.16 147.598 1822.16 142.52V128.457H1856.93V136.758C1856.93 147.695 1855.56 156.875 1852.82 164.297C1850.15 171.654 1845.6 177.22 1839.15 180.996C1832.77 184.707 1824.05 186.562 1812.98 186.562ZM1805.56 97.5977H1822.16V77.8711C1822.16 72.5977 1821.51 68.8216 1820.21 66.543C1818.9 64.1992 1816.95 63.0273 1814.35 63.0273C1811.55 63.0273 1809.37 64.1341 1807.8 66.3477C1806.31 68.5612 1805.56 72.4023 1805.56 77.8711V97.5977Z" fill="#3B82F6"/>
<path d="M1118.21 185V38.5156H1152.39V55.5078C1153.95 49.5182 1156.62 44.9284 1160.39 41.7383C1164.17 38.5482 1169.7 36.9531 1177 36.9531C1182.86 36.9531 1187.84 38.3203 1191.94 41.0547C1196.1 43.724 1199.03 47.2721 1200.73 51.6992C1203.4 46.8815 1206.52 43.2357 1210.1 40.7617C1213.75 38.2227 1218.92 36.9531 1225.63 36.9531C1233.77 36.9531 1240.02 38.7109 1244.38 42.2266C1248.81 45.6771 1251.87 50.4948 1253.56 56.6797C1255.32 62.7995 1256.2 69.8958 1256.2 77.9688V185H1221.33V77.3828C1221.33 67.9427 1218.92 63.2227 1214.11 63.2227C1211.57 63.2227 1209.61 64.1016 1208.25 65.8594C1206.88 67.5521 1205.93 69.668 1205.41 72.207C1204.89 74.7461 1204.63 77.2852 1204.63 79.8242V185H1169.77V77.3828C1169.77 74.3229 1169.38 71.263 1168.6 68.2031C1167.88 65.1432 1165.99 63.6133 1162.93 63.6133C1160.33 63.6133 1158.31 64.5573 1156.88 66.4453C1155.45 68.3333 1154.47 70.6771 1153.95 73.4766C1153.43 76.2109 1153.17 78.9128 1153.17 81.582V185H1118.21Z" fill="#3B82F6"/>
<path d="M567.379 29.5312V0.429688H602.34V29.5312H567.379ZM567.379 185V38.5156H602.34V185H567.379Z" fill="#3B82F6"/>
<path d="M34.5195 186.562C25.0794 186.562 18.6992 184.577 15.3789 180.605C12.1237 176.569 10.4961 170.417 10.4961 162.148V70.8398H0.632812V44.1797H10.4961V13.125H44.4805V44.1797H54.3438V70.8398H44.4805V153.945C44.4805 156.354 44.8711 158.047 45.6523 159.023C46.4336 160 47.931 160.488 50.1445 160.488C51.707 160.488 53.1068 160.358 54.3438 160.098V183.926C53.5625 184.186 51.1211 184.674 47.0195 185.391C42.918 186.172 38.7513 186.562 34.5195 186.562Z" fill="#3B82F6"/>
</svg>
