<svg width="1646" height="1129" viewBox="0 0 1646 1129" fill="none" xmlns="http://www.w3.org/2000/svg">
<g id="undraw_remote_design_team_re_urdx 1">
<path id="background" d="M1363.72 764.199C1383.9 846.605 1351.67 933.072 1284.08 984.555C1253.74 1007.67 1218.25 1030.91 1182.21 1046.31C1146.11 1061.75 1109.95 1069.12 1078 1061.18C1023.84 1047.72 976.29 1017.5 928.335 987.029C916.484 979.499 904.609 971.952 892.604 964.639C832.377 927.952 762.224 895.813 691.197 907.197C669.612 910.656 648.972 918.032 628.753 925.258C627.857 925.578 626.963 925.898 626.069 926.217C604.859 933.788 584.054 941.008 562.338 943.76C512.399 950.088 461.882 932.02 417.763 906.062C297.817 835.489 215.268 702.461 211.899 563.499C208.531 424.53 287.564 285.103 411.403 222.328C535.252 159.55 698.235 180.379 797.998 276.703C828.291 305.952 852.274 340.465 874.503 376.763C883.685 391.756 892.629 407.165 901.603 422.626C914.202 444.332 926.859 466.139 940.312 487.031C986.598 558.91 1053.04 628.685 1139.47 639.358C1156.91 641.512 1174.72 641.152 1192.15 640.799C1196.59 640.709 1201.02 640.619 1205.4 640.572C1227.15 640.338 1248.19 641.129 1268.18 647.605C1315.65 662.985 1348.7 708.981 1362.13 758.054C1362.68 760.097 1363.22 762.146 1363.72 764.199Z" stroke="#0D2043" stroke-width="8"/>
<path id="white-rectangle-background" d="M742.056 360.61H56.5631C42.2669 360.626 28.561 366.313 18.452 376.422C8.34307 386.531 2.65651 400.237 2.63989 414.533V755.702C2.65651 769.998 8.34306 783.704 18.452 793.813C28.561 803.922 42.2669 809.609 56.5631 809.625H742.056C756.354 809.613 770.062 803.928 780.172 793.818C790.282 783.708 795.967 770 795.979 755.702V414.533C795.967 400.236 790.282 386.527 780.172 376.417C770.062 366.307 756.354 360.622 742.056 360.61Z" fill="white"/>
<g id="background-stroke">
<mask id="path-3-inside-1_118_312" fill="white">
<path d="M745.058 812.33H59.5752C44.5757 812.313 30.1955 806.347 19.5892 795.74C8.983 785.134 3.01697 770.754 3 755.754V414.575C3.01697 399.576 8.983 385.195 19.5892 374.589C30.1955 363.983 44.5757 358.017 59.5752 358H745.058C760.058 358.017 774.438 363.983 785.044 374.589C795.651 385.195 801.617 399.576 801.634 414.575V755.754C801.617 770.754 795.651 785.134 785.044 795.74C774.438 806.347 760.058 812.313 745.058 812.33ZM59.5752 363.302C45.9815 363.318 32.9491 368.725 23.3369 378.337C13.7247 387.949 8.31776 400.982 8.30218 414.575V755.754C8.31776 769.348 13.7247 782.381 23.3369 791.993C32.9491 801.605 45.9815 807.012 59.5752 807.028H745.058C758.652 807.012 771.684 801.605 781.297 791.993C790.909 782.381 796.316 769.348 796.331 755.754V414.575C796.316 400.982 790.909 387.949 781.297 378.337C771.684 368.725 758.652 363.318 745.058 363.302H59.5752Z"/>
</mask>
<path d="M745.058 812.33L745.058 818.33L745.065 818.33L745.058 812.33ZM59.5752 812.33L59.5684 818.33H59.5752V812.33ZM3 755.754L-3 755.754L-3 755.761L3 755.754ZM3 414.575L-3 414.568V414.575H3ZM59.5752 358L59.5752 352L59.5684 352L59.5752 358ZM745.058 358L745.065 352H745.058V358ZM801.634 414.575L807.634 414.575L807.634 414.568L801.634 414.575ZM801.634 755.754L807.634 755.761V755.754H801.634ZM59.5752 363.302L59.5752 357.302L59.5683 357.302L59.5752 363.302ZM8.30218 414.575L2.30218 414.568V414.575H8.30218ZM8.30218 755.754L2.30218 755.754L2.30219 755.761L8.30218 755.754ZM59.5752 807.028L59.5683 813.028H59.5752V807.028ZM745.058 807.028L745.058 813.028L745.065 813.027L745.058 807.028ZM796.331 755.754L802.331 755.761V755.754H796.331ZM796.331 414.575L802.331 414.575L802.331 414.568L796.331 414.575ZM745.058 363.302L745.065 357.302H745.058V363.302ZM745.058 806.33H59.5752V818.33H745.058V806.33ZM59.582 806.33C46.1715 806.315 33.3145 800.98 23.8319 791.498L15.3466 799.983C27.0764 811.713 42.98 818.311 59.5684 818.33L59.582 806.33ZM23.8319 791.498C14.3492 782.015 9.01517 769.158 9 755.748L-3 755.761C-2.98122 772.35 3.6168 788.253 15.3466 799.983L23.8319 791.498ZM9 755.754V414.575H-3V755.754H9ZM9 414.582C9.01517 401.171 14.3492 388.315 23.8319 378.832L15.3466 370.347C3.6168 382.076 -2.98123 397.98 -3 414.568L9 414.582ZM23.8319 378.832C33.3145 369.349 46.1715 364.015 59.582 364L59.5684 352C42.98 352.019 27.0764 358.617 15.3466 370.347L23.8319 378.832ZM59.5752 364H745.058V352H59.5752V364ZM745.052 364C758.462 364.015 771.319 369.349 780.802 378.832L789.287 370.347C777.557 358.617 761.654 352.019 745.065 352L745.052 364ZM780.802 378.832C790.284 388.315 795.618 401.171 795.634 414.582L807.634 414.568C807.615 397.98 801.017 382.076 789.287 370.347L780.802 378.832ZM795.634 414.575V755.754H807.634V414.575H795.634ZM795.634 755.748C795.618 769.158 790.284 782.015 780.802 791.498L789.287 799.983C801.017 788.253 807.615 772.35 807.634 755.761L795.634 755.748ZM780.802 791.498C771.319 800.98 758.462 806.315 745.052 806.33L745.065 818.33C761.654 818.311 777.557 811.713 789.287 799.983L780.802 791.498ZM59.5683 357.302C44.3857 357.32 29.83 363.359 19.0943 374.094L27.5795 382.58C36.0682 374.091 47.5773 369.316 59.5821 369.302L59.5683 357.302ZM19.0943 374.094C8.35855 384.83 2.31959 399.386 2.30219 414.568L14.3022 414.582C14.3159 402.577 19.0909 391.068 27.5795 382.58L19.0943 374.094ZM2.30218 414.575V755.754H14.3022V414.575H2.30218ZM2.30219 755.761C2.31959 770.944 8.35855 785.5 19.0943 796.235L27.5795 787.75C19.0909 779.261 14.3159 767.752 14.3022 755.748L2.30219 755.761ZM19.0943 796.235C29.83 806.971 44.3857 813.01 59.5683 813.027L59.5821 801.028C47.5773 801.014 36.0682 796.239 27.5795 787.75L19.0943 796.235ZM59.5752 813.028H745.058V801.028H59.5752V813.028ZM745.065 813.027C760.248 813.01 774.804 806.971 785.539 796.235L777.054 787.75C768.565 796.239 757.056 801.014 745.052 801.028L745.065 813.027ZM785.539 796.235C796.275 785.5 802.314 770.944 802.331 755.761L790.331 755.748C790.318 767.752 785.543 779.261 777.054 787.75L785.539 796.235ZM802.331 755.754V414.575H790.331V755.754H802.331ZM802.331 414.568C802.314 399.386 796.275 384.83 785.539 374.094L777.054 382.58C785.543 391.068 790.318 402.577 790.331 414.582L802.331 414.568ZM785.539 374.094C774.804 363.359 760.248 357.32 745.065 357.302L745.052 369.302C757.056 369.316 768.565 374.091 777.054 382.58L785.539 374.094ZM745.058 357.302H59.5752V369.302H745.058V357.302Z" fill="black" mask="url(#path-3-inside-1_118_312)"/>
</g>
<path id="white-rectangle-background-2" d="M1387.99 607.515H1101.53C1095.55 607.508 1089.83 605.132 1085.6 600.907C1081.38 596.683 1079 590.955 1078.99 584.981V442.406C1079 436.431 1081.38 430.703 1085.6 426.479C1089.83 422.254 1095.55 419.878 1101.53 419.871H1387.99C1393.96 419.878 1399.69 422.254 1403.91 426.479C1408.14 430.703 1410.51 436.431 1410.52 442.406V584.981C1410.51 590.955 1408.14 596.683 1403.91 600.907C1399.69 605.132 1393.96 607.508 1387.99 607.515Z" fill="white"/>
<path id="background-stroke-2" d="M1101.53 420.022L1101.53 420.022C1095.59 420.029 1089.9 422.389 1085.71 426.584C1081.51 430.78 1079.15 436.469 1079.14 442.403V442.405L1079.14 584.981L1079.14 584.983C1079.15 590.917 1081.51 596.606 1085.71 600.802C1089.9 604.997 1095.59 607.357 1101.53 607.364H1101.53H1387.98H1387.99C1393.92 607.357 1399.61 604.997 1403.81 600.802C1408 596.606 1410.36 590.917 1410.37 584.983V584.981V442.405V442.403C1410.36 436.469 1408 430.78 1403.81 426.584C1399.61 422.389 1393.92 420.029 1387.99 420.022H1387.98L1101.53 420.022ZM1387.98 607.666H1101.53C1095.52 607.659 1089.75 605.267 1085.5 601.013C1081.24 596.76 1078.85 590.994 1078.84 584.979V442.407C1078.85 436.392 1081.24 430.626 1085.5 426.373C1089.75 422.12 1095.51 419.727 1101.53 419.72H1387.98C1394 419.727 1399.76 422.12 1404.02 426.373C1408.27 430.626 1410.66 436.393 1410.67 442.408V584.978C1410.66 590.993 1408.27 596.76 1404.02 601.013C1399.76 605.267 1394 607.659 1387.98 607.666Z" stroke="#2F2E41" stroke-width="5"/>
<path id="fade-in-line" d="M1282.77 90.4207H78.4177C77.4301 90.3972 76.4905 89.9891 75.7993 89.283C75.1057 88.5746 74.7173 87.6227 74.7173 86.6313C74.7173 85.6399 75.1057 84.6879 75.7993 83.9795C76.4905 83.2734 77.4301 82.8653 78.4177 82.8418H1282.77C1283.75 82.8653 1284.69 83.2734 1285.39 83.9795C1286.08 84.6879 1286.47 85.6399 1286.47 86.6313C1286.47 87.6227 1286.08 88.5746 1285.39 89.283C1284.69 89.9891 1283.75 90.3972 1282.77 90.4207Z" stroke="#CACACA" stroke-width="2"/>
<g id="circles">
<path id="Vector" d="M160.39 57.3879C175.891 57.3879 188.458 44.5412 188.458 28.694C188.458 12.8467 175.891 0 160.39 0C144.888 0 132.321 12.8467 132.321 28.694C132.321 44.5412 144.888 57.3879 160.39 57.3879Z" fill="#3F3D56"/>
<path id="Vector_2" d="M257.353 57.3879C272.855 57.3879 285.422 44.5412 285.422 28.694C285.422 12.8467 272.855 0 257.353 0C241.851 0 229.285 12.8467 229.285 28.694C229.285 44.5412 241.851 57.3879 257.353 57.3879Z" fill="#3F3D56"/>
<path id="Vector_3" d="M354.317 57.3879C369.819 57.3879 382.385 44.5412 382.385 28.694C382.385 12.8467 369.819 0 354.317 0C338.815 0 326.248 12.8467 326.248 28.694C326.248 44.5412 338.815 57.3879 354.317 57.3879Z" fill="#3F3D56"/>
</g>
<g id="lines">
<path id="Vector_4" d="M1224.4 7.11206H1155.52C1154.16 7.13907 1152.86 7.70039 1151.9 8.67551C1150.94 9.65062 1150.41 10.9618 1150.41 12.3273C1150.41 13.6929 1150.94 15.0041 1151.9 15.9792C1152.86 16.9543 1154.16 17.5156 1155.52 17.5426H1224.4C1225.76 17.5156 1227.06 16.9543 1228.02 15.9792C1228.98 15.0041 1229.51 13.6929 1229.51 12.3273C1229.51 10.9618 1228.98 9.65062 1228.02 8.67551C1227.06 7.70039 1225.76 7.13907 1224.4 7.11206Z" fill="#3F3D56"/>
<path id="Vector_5" d="M1224.4 26.6887H1155.52C1154.16 26.7157 1152.86 27.2771 1151.9 28.2522C1150.94 29.2273 1150.41 30.5384 1150.41 31.904C1150.41 33.2696 1150.94 34.5807 1151.9 35.5559C1152.86 36.531 1154.16 37.0923 1155.52 37.1193H1224.4C1225.76 37.0923 1227.06 36.531 1228.02 35.5559C1228.98 34.5807 1229.51 33.2696 1229.51 31.904C1229.51 30.5384 1228.98 29.2273 1228.02 28.2522C1227.06 27.2771 1225.76 26.7157 1224.4 26.6887Z" fill="#3F3D56"/>
<path id="Vector_6" d="M1224.4 46.2397H1155.52C1154.16 46.2668 1152.86 46.8281 1151.9 47.8032C1150.94 48.7783 1150.41 50.0895 1150.41 51.455C1150.41 52.8206 1150.94 54.1318 1151.9 55.1069C1152.86 56.082 1154.16 56.6433 1155.52 56.6703H1224.4C1225.76 56.6433 1227.06 56.082 1228.02 55.1069C1228.98 54.1318 1229.51 52.8206 1229.51 51.455C1229.51 50.0895 1228.98 48.7783 1228.02 47.8032C1227.06 46.8281 1225.76 46.2668 1224.4 46.2397Z" fill="#3F3D56"/>
</g>
<path id="check-circle" d="M1408.52 636.681C1426.64 636.681 1441.32 621.995 1441.32 603.88C1441.32 585.765 1426.64 571.08 1408.52 571.08C1390.41 571.08 1375.72 585.765 1375.72 603.88C1375.72 621.995 1390.41 636.681 1408.52 636.681Z" fill="#3F3D56"/>
<path id="check" d="M1406.07 616.989C1406 616.989 1405.93 616.987 1405.86 616.984C1405.24 616.954 1404.64 616.791 1404.09 616.505C1403.54 616.22 1403.06 615.82 1402.68 615.331L1397.2 608.284C1396.85 607.84 1396.6 607.331 1396.45 606.787C1396.3 606.244 1396.26 605.676 1396.33 605.117C1396.4 604.558 1396.58 604.018 1396.85 603.528C1397.13 603.038 1397.51 602.608 1397.95 602.262L1398.15 602.108C1398.59 601.762 1399.1 601.506 1399.65 601.357C1400.19 601.207 1400.76 601.166 1401.32 601.236C1401.88 601.306 1402.42 601.485 1402.91 601.764C1403.4 602.043 1403.83 602.416 1404.17 602.861C1404.45 603.216 1404.8 603.508 1405.2 603.715C1405.6 603.923 1406.04 604.042 1406.49 604.064C1406.94 604.086 1407.39 604.01 1407.81 603.842C1408.22 603.675 1408.6 603.419 1408.91 603.092L1420.04 591.342C1420.83 590.517 1421.9 590.036 1423.04 590.005C1424.18 589.974 1425.28 590.396 1426.11 591.177L1426.29 591.351C1426.7 591.738 1427.03 592.203 1427.26 592.718C1427.49 593.232 1427.62 593.787 1427.63 594.351C1427.65 594.914 1427.55 595.475 1427.35 596.001C1427.15 596.528 1426.84 597.009 1426.46 597.418L1409.18 615.649C1408.78 616.072 1408.3 616.409 1407.76 616.64C1407.23 616.87 1406.65 616.989 1406.07 616.989Z" fill="white"/>
<g id="Penguin 1">
<path id="Vector_7" d="M510.864 754.87C510.893 772.376 506.873 789.651 499.12 805.346C498.245 807.149 497.317 808.899 496.336 810.649H297.054C296.073 808.899 295.145 807.149 294.27 805.346C286.662 789.92 282.637 772.974 282.496 755.774C282.355 738.574 286.102 721.564 293.457 706.015C300.812 690.466 311.585 676.779 324.971 665.978C338.357 655.176 354.01 647.538 370.762 643.634C387.514 639.73 404.931 639.661 421.713 643.432C438.495 647.203 454.209 654.717 467.68 665.413C481.151 676.108 492.032 689.709 499.509 705.199C506.987 720.69 510.869 737.669 510.864 754.87Z" fill="#2F2E41"/>
<path id="Vector_8" d="M285.943 648.678C276.724 607.39 306.194 565.671 351.766 555.495C397.338 545.319 441.755 570.54 450.974 611.828C460.193 653.115 429.991 668.343 384.419 678.519C338.847 688.694 295.162 689.965 285.943 648.678Z" fill="#1E293B"/>
<path id="Vector_9" d="M317.125 755.171C323.206 747.672 308.771 725.888 284.883 706.516C260.994 687.143 236.699 677.518 230.617 685.017C224.536 692.517 238.971 714.301 262.859 733.673C286.748 753.046 311.043 762.671 317.125 755.171Z" fill="#2F2E41"/>
<path id="Vector_10" d="M399.588 764.975C421.139 764.975 438.61 747.504 438.61 725.953C438.61 704.401 421.139 686.931 399.588 686.931C378.037 686.931 360.566 704.401 360.566 725.953C360.566 747.504 378.037 764.975 399.588 764.975Z" fill="white"/>
<path id="eye" d="M399.588 738.96C406.772 738.96 412.595 733.136 412.595 725.952C412.595 718.769 406.772 712.945 399.588 712.945C392.404 712.945 386.581 718.769 386.581 725.952C386.581 733.136 392.404 738.96 399.588 738.96Z" fill="#3F3D56"/>
</g>
<g id="penguin 2">
<path id="Vector_11" d="M1261.38 547.304C1322.9 547.304 1372.76 497.438 1372.76 435.926C1372.76 374.413 1322.9 324.547 1261.38 324.547C1199.87 324.547 1150.01 374.413 1150.01 435.926C1150.01 497.438 1199.87 547.304 1261.38 547.304Z" fill="#2F2E41"/>
<path id="Vector_12" d="M1377.4 468.584C1407.18 460.893 1429.36 447.079 1426.95 437.73C1424.54 428.382 1398.44 427.039 1368.66 434.73C1338.88 442.422 1316.7 456.235 1319.11 465.584C1321.53 474.932 1347.62 476.276 1377.4 468.584Z" fill="#2F2E41"/>
<path id="Vector_13" d="M1155.88 468.97C1167.68 440.569 1170.02 414.541 1161.1 410.836C1152.19 407.131 1135.39 427.151 1123.59 455.553C1111.79 483.954 1109.45 509.982 1118.36 513.687C1127.28 517.392 1144.08 497.372 1155.88 468.97Z" fill="#2F2E41"/>
<path id="Vector_14" d="M1245.15 584.037L1211.32 584.195C1186.55 559.813 1190.21 540.241 1211.03 523.572L1244.87 523.414C1229.27 542.621 1225.11 562.558 1245.15 584.037Z" fill="#2F2E41"/>
<path id="Vector_15" d="M1226.54 599.626C1240 591.777 1248.51 581.325 1245.57 576.282C1242.63 571.238 1229.34 573.512 1215.89 581.361C1202.44 589.21 1193.92 599.662 1196.86 604.705C1199.81 609.749 1213.09 607.475 1226.54 599.626Z" fill="#2F2E41"/>
<path id="Vector_16" d="M1287.52 599.626C1300.97 591.777 1309.49 581.325 1306.54 576.282C1303.6 571.238 1290.31 573.512 1276.86 581.361C1263.41 589.21 1254.89 599.662 1257.84 604.705C1260.78 609.749 1274.07 607.475 1287.52 599.626Z" fill="#2F2E41"/>
<path id="Vector_17" d="M1306.13 584.037L1272.29 584.195C1247.52 559.813 1251.19 540.241 1272.01 523.572L1305.85 523.414C1290.25 542.621 1286.09 562.558 1306.13 584.037Z" fill="#2F2E41"/>
<path id="Vector_18" d="M1368.94 331.846C1377.75 291.528 1348.81 250.965 1304.31 241.245C1259.81 231.525 1216.59 256.33 1207.79 296.647C1198.98 336.965 1228.51 351.682 1273.01 361.402C1317.51 371.122 1360.13 372.163 1368.94 331.846Z" fill="#1E293B"/>
<path id="Vector_19" d="M1258.43 445.808C1279.45 445.808 1296.5 428.765 1296.5 407.742C1296.5 386.719 1279.45 369.676 1258.43 369.676C1237.41 369.676 1220.37 386.719 1220.37 407.742C1220.37 428.765 1237.41 445.808 1258.43 445.808Z" fill="white"/>
<path id="eye_2" d="M1258.65 438.742C1265.66 438.742 1271.34 433.061 1271.34 426.053C1271.34 419.045 1265.66 413.365 1258.65 413.365C1251.64 413.365 1245.96 419.045 1245.96 426.053C1245.96 433.061 1251.64 438.742 1258.65 438.742Z" fill="#3F3D56"/>
<path id="Vector_20" d="M1283.89 484.462C1283.93 491.188 1281.3 497.655 1276.58 502.443C1271.85 507.231 1265.42 509.948 1258.7 509.997C1251.97 510.045 1245.5 507.422 1240.71 502.703C1235.92 497.983 1233.19 491.555 1233.14 484.829L1233.14 484.747L1233.14 484.698C1233.07 470.682 1244.42 467.727 1258.43 467.662C1272.45 467.597 1283.83 470.446 1283.89 484.462Z" fill="white"/>
</g></g>
</svg>
