<svg width="1920" height="562" viewBox="0 0 1920 562" fill="none" xmlns="http://www.w3.org/2000/svg">
<g id="undraw_gift_box_re_vau4 1" clip-path="url(#clip0_67_2)">
<path id="filled-square" d="M985.663 229.847L929 261.695L961.715 316.857L1018.38 285.009L985.663 229.847Z" fill="#FF6584"/>
<path id="un-filled-square" d="M991.523 329.329L955.652 268.846L1017.78 233.926L1053.65 294.41L991.523 329.329ZM959.798 269.928L992.634 325.292L1049.51 293.328L1016.67 237.963L959.798 269.928Z" fill="#3B82F6"/>
<path id="filled-circle" d="M942.632 405.752C957.544 405.752 969.632 393.984 969.632 379.467C969.632 364.951 957.544 353.183 942.632 353.183C927.721 353.183 915.632 364.951 915.632 379.467C915.632 393.984 927.721 405.752 942.632 405.752Z" fill="#D0CDE1"/>
<path id="un-filled-circle" d="M965.694 407.058C960.057 407.058 954.547 405.431 949.86 402.382C945.174 399.334 941.521 395 939.364 389.931C937.207 384.861 936.642 379.282 937.742 373.901C938.842 368.519 941.556 363.575 945.542 359.695C949.527 355.815 954.606 353.172 960.134 352.102C965.663 351.031 971.393 351.581 976.601 353.68C981.808 355.78 986.259 359.337 989.391 363.899C992.523 368.462 994.194 373.826 994.194 379.313C994.194 386.672 991.191 393.729 985.847 398.932C980.502 404.135 973.253 407.058 965.694 407.058ZM965.694 354.343C960.621 354.343 955.662 355.808 951.444 358.551C947.226 361.295 943.938 365.195 941.997 369.758C940.055 374.32 939.547 379.341 940.537 384.185C941.527 389.028 943.97 393.478 947.557 396.97C951.144 400.462 955.715 402.84 960.69 403.804C965.666 404.767 970.823 404.273 975.51 402.383C980.197 400.493 984.203 397.292 987.021 393.186C989.84 389.08 991.344 384.252 991.344 379.313C991.344 372.691 988.642 366.339 983.831 361.657C979.021 356.974 972.497 354.343 965.694 354.343Z" fill="#3B82F6"/>
<path id="filled-square2" d="M865.958 226.305L848.974 288.011L912.359 304.545L929.343 242.839L865.958 226.305Z" fill="#D0CDE1"/>
<path id="un-filled-square2" d="M883.615 308.696L815 290.798L833.385 224L902 241.898L883.615 308.696ZM818.68 288.729L881.49 305.113L898.32 243.967L835.51 227.583L818.68 288.729Z" fill="#3B82F6"/>
<g id="body">
<path id="Vector" d="M1081.97 509.096H785.369C781.737 509.092 778.254 507.686 775.686 505.185C773.117 502.685 771.672 499.294 771.668 495.758V227.421C771.672 223.884 773.117 220.494 775.686 217.993C778.254 215.493 781.737 214.086 785.369 214.082H1081.97C1085.6 214.086 1089.08 215.493 1091.65 217.993C1094.22 220.494 1095.66 223.884 1095.67 227.421V495.758C1095.66 499.294 1094.22 502.685 1091.65 505.185C1089.08 507.686 1085.6 509.092 1081.97 509.096Z" fill="#3B82F6"/>
<path id="Vector_2" d="M952.439 485.324H914.951C911.702 485.32 908.587 484.062 906.289 481.825C903.992 479.589 902.699 476.556 902.695 473.393V217.81C902.699 214.647 903.992 211.615 906.289 209.378C908.587 207.141 911.702 205.883 914.951 205.879H952.439C955.689 205.883 958.804 207.141 961.102 209.378C963.399 211.615 964.692 214.647 964.695 217.81V473.393C964.692 476.556 963.399 479.589 961.102 481.825C958.804 484.062 955.689 485.32 952.439 485.324Z" fill="#3F3D56"/>
</g>
<path id="shadow" opacity="0.1" d="M1094.52 244.893V340.81L996.524 214.889H1071.17L1094.52 244.893Z" fill="black"/>
<g id="overlay">
<path id="Vector_3" d="M918.688 108.017C937.501 124.583 930.692 163.229 930.692 163.229C930.692 163.229 893.382 175.016 874.57 158.45C855.757 141.884 862.566 103.238 862.566 103.238C862.566 103.238 899.876 91.4511 918.688 108.017Z" fill="#3F3D56"/>
<path id="Vector_4" d="M992.429 157.235C975.008 177.272 935.564 171.362 935.564 171.362C935.564 171.362 924.365 132.965 941.786 112.927C959.207 92.8904 998.652 98.801 998.652 98.801C998.652 98.801 1009.85 137.198 992.429 157.235Z" fill="#3F3D56"/>
<path id="Vector_5" d="M1120.94 233.361C1119.65 235.028 1118.01 236.382 1116.13 237.315C1114.26 238.248 1112.2 238.736 1110.13 238.74L757.123 239.41C755.364 239.413 753.631 239.067 752.022 238.393C750.413 237.718 748.96 236.727 747.746 235.477C746.532 234.227 745.581 232.742 744.947 231.106C744.313 229.471 744.009 227.718 744.051 225.946L745.002 186.271C745.044 184.5 745.433 182.745 746.145 181.107C746.857 179.469 747.88 177.981 749.154 176.726C750.428 175.471 751.928 174.475 753.57 173.794C755.211 173.113 756.962 172.761 758.721 172.758L1111.73 172.087C1113.49 172.084 1115.22 172.43 1116.83 173.104C1118.44 173.779 1119.89 174.77 1121.1 176.02C1122.32 177.27 1123.27 178.756 1123.9 180.391C1124.54 182.026 1124.84 183.78 1124.8 185.551L1123.85 225.226C1123.78 228.162 1122.76 231.019 1120.94 233.361Z" fill="#3B82F6"/>
<path id="Vector_6" d="M904.826 182.765L902.638 243.725L963.193 244.333L965.381 183.372L904.826 182.765Z" fill="#3F3D56"/>
</g>
</g>
<defs>
<clipPath id="clip0_67_2">
<rect width="1920" height="562" fill="white"/>
</clipPath>
</defs>
</svg>
