<svg width="2988" height="1548" viewBox="0 0 2988 1548" fill="none" xmlns="http://www.w3.org/2000/svg">
<path d="M127.095 370V558M127.095 370C127.095 370 511.096 218 883.096 282C1255.1 346 1167.09 122 1447.09 218C1727.09 314 2043.1 174 2043.1 174M127.095 370C127.095 370 4.09549 444 8.09549 484C12.0955 524 127.095 558 127.095 558M127.095 558C127.095 558 483.096 710 551.096 706C619.096 702 703.096 686 831.096 894C959.096 1102 971.095 1094 1271.09 1030C1571.09 966 2043.1 1174 2043.1 1174M2043.1 1174V174M2043.1 1174C2043.1 1174 2692.1 1384 2852.1 1492C3012.1 1600 2976.1 1492 2976.1 1492V20C2976.1 20 2944.1 52 2508.1 60C2072.1 68 2043.1 174 2043.1 174" stroke="#3B82F6" stroke-width="16"/>
</svg>
